/* XPM */
static char *b0bce79561e644be8630119f485b0075PTHhbqTcnjdxACz9[] = {
/* columns rows colors chars-per-pixel */
"16 16 25 1 ",
"  c None",
". c #038A0D",
"X c #039713",
"o c #059713",
"O c #03A219",
"+ c #02A31A",
"@ c #03A41A",
"# c #03B020",
"$ c #02B121",
"% c #02B220",
"& c #04B021",
"* c #02BB26",
"= c #02BE27",
"- c #03BE27",
"; c #03BF27",
": c #02BF28",
"> c #02C127",
", c #02C92C",
"< c #02CB2E",
"1 c #01CD2E",
"2 c #02CC2E",
"3 c #02D533",
"4 c #01D835",
"5 c #01D935",
"6 c #01E43A",
/* pixels */
"                ",
"                ",
"                ",
"                ",
"        6       ",
"     4 34       ",
"  2 ,2 ,        ",
" *> - >: : *  : ",
" $ &$ $    $ &  ",
"        @ O  O  ",
"       o  X     ",
"       .        ",
"                ",
"                ",
"                ",
"                "
};
