/* XPM */
static char *aa1a66a95f834e738e4222b9314aeb6cg1Bl6bp3TmxFtfjI[] = {
/* columns rows colors chars-per-pixel */
"32 32 79 1 ",
"  c None",
". c #048309",
"X c #058309",
"o c #058409",
"O c #04870B",
"+ c #04870C",
"@ c #038E0F",
"# c #048D0F",
"$ c #048E0F",
"% c #058D10",
"& c #049311",
"* c #049312",
"= c #039412",
"- c #049412",
"; c #049914",
": c #049A14",
"> c #059A15",
", c #029F18",
"< c #039F18",
"1 c #03A018",
"2 c #02A118",
"3 c #03A61B",
"4 c #03A71B",
"5 c #04A51C",
"6 c #04AB1E",
"7 c #02AC1E",
"8 c #02AD1E",
"9 c #03AD1E",
"0 c #02AD1F",
"q c #03AD1F",
"w c #03AE1F",
"e c #04AD1F",
"r c #03AC20",
"t c #03B322",
"y c #03B323",
"u c #04B322",
"i c #02B422",
"p c #03B422",
"a c #02B523",
"s c #04B421",
"d c #02BA25",
"f c #02BB25",
"g c #01BB26",
"h c #02BA26",
"j c #02BB26",
"k c #02BB27",
"l c #03BC26",
"z c #02C129",
"x c #03C129",
"c c #01C229",
"v c #02C229",
"b c #02C22A",
"n c #02C429",
"m c #02C72A",
"M c #02C72B",
"N c #02C82B",
"B c #02C82C",
"V c #02C82E",
"C c #01CF2F",
"Z c #02CE2F",
"A c #01D02F",
"S c #02CF30",
"D c #02D030",
"F c #03D432",
"G c #02D532",
"H c #03D532",
"J c #00D434",
"K c #01DB36",
"L c #01DC36",
"P c #02DC36",
"I c #01E138",
"U c #01E139",
"Y c #00E239",
"T c #00E23A",
"R c #01E73B",
"E c #02E73D",
"W c #01E83B",
"Q c #01ED3E",
"! c #01EC3F",
/* pixels */
"                                ",
"                                ",
"                                ",
"                                ",
"                                ",
"                                ",
"                                ",
"                 QQ             ",
"                WWW             ",
"           UUU  UUT             ",
"          PKK  KPP              ",
"     HH   HHJ  HH               ",
"    SZS  DZZ  SZD               ",
"    BBB  BB   BB   nn   nN  Bn  ",
"   xxx    n  xxx  nxx       xx  ",
"   jj   jj  jjj  ljk  jjl   jl  ",
"  i i  isi  s    i    ii  ss    ",
"  re  eer  r7e   67  ee7  r7r   ",
"                33  544  533    ",
"               2<2  1<1  12<    ",
"               ;;  ;;;   >;     ",
"              --=  &--          ",
"             %@%  $@$           ",
"             +o+                ",
"            ooo                 ",
"                                ",
"                                ",
"                                ",
"                                ",
"                                ",
"                                ",
"                                "
};
