/* XPM */
static char *_adfc8df06b043f899b2b240824af8a26jHaFhaCxrRPOg61[] = {
/* columns rows colors chars-per-pixel */
"48 48 109 2 ",
"   c None",
".  c #058209",
"X  c #058309",
"o  c #04870B",
"O  c #05870B",
"+  c #038B0D",
"@  c #048A0D",
"#  c #058E0F",
"$  c #03900F",
"%  c #048E10",
"&  c #039211",
"*  c #049211",
"=  c #059211",
"-  c #039713",
";  c #049512",
":  c #049613",
">  c #049713",
",  c #039B16",
"<  c #049B15",
"1  c #049B16",
"2  c #059B17",
"3  c #049F17",
"4  c #039E18",
"5  c #039F18",
"6  c #059F18",
"7  c #03A319",
"8  c #02A31A",
"9  c #03A31A",
"0  c #02A41A",
"q  c #03A41A",
"w  c #03A71B",
"e  c #03A71C",
"r  c #03A81B",
"t  c #03A91B",
"y  c #02A81C",
"u  c #03A81C",
"i  c #02A81D",
"p  c #03AC1E",
"a  c #02AD1E",
"s  c #03AD1E",
"d  c #03AC1F",
"f  c #02AD1F",
"g  c #03B020",
"h  c #02B120",
"j  c #03B120",
"k  c #03B121",
"l  c #03B220",
"z  c #03B221",
"x  c #03B122",
"c  c #03B323",
"v  c #02B522",
"b  c #03B522",
"n  c #02B523",
"m  c #03B523",
"M  c #02B623",
"N  c #03B623",
"B  c #02B925",
"V  c #03B925",
"C  c #01BA25",
"Z  c #03BA24",
"A  c #02BB24",
"S  c #02BA25",
"D  c #03BA25",
"F  c #03B926",
"G  c #03BA26",
"H  c #01BF26",
"J  c #03BF26",
"K  c #02BE27",
"L  c #02BF27",
"P  c #01BF28",
"I  c #02BE28",
"U  c #02BF28",
"Y  c #01C329",
"T  c #02C329",
"R  c #01C32A",
"E  c #02C22A",
"W  c #02C32A",
"Q  c #02C62B",
"!  c #02C72B",
"~  c #01C72C",
"^  c #02C72C",
"/  c #03C62D",
"(  c #02C72D",
")  c #01C82C",
"_  c #03C82C",
"`  c #03CB2D",
"'  c #02CC2D",
"]  c #01CC2E",
"[  c #02CF30",
"{  c #01D030",
"}  c #02D030",
"|  c #02D333",
" . c #01D532",
".. c #02D432",
"X. c #02D533",
"o. c #01D834",
"O. c #00DA34",
"+. c #01DA35",
"@. c #01DD36",
"#. c #01DD37",
"$. c #01E038",
"%. c #00E138",
"&. c #02E139",
"*. c #01E43A",
"=. c #01E53B",
"-. c #01E83B",
";. c #01E83C",
":. c #01EB3E",
">. c #02EB3F",
/* pixels */
"                                                                                                ",
"                                                                                                ",
"                                                                                                ",
"                                                                                                ",
"                                                                                                ",
"                                                                                                ",
"                                                                                                ",
"                                                                                                ",
"                                                                                                ",
"                                                                                                ",
"                                                                                                ",
"                                                  >.>.>.>.                                      ",
"                                                  -.*.>.-.                                      ",
"                                                *.*.*.*.                                        ",
"                                $.$.$.$.        $.$.$.$.                                        ",
"                                @.@.@.#.      #.@.@.@.                                          ",
"                              +.+.o.o.        X.+.o.@.                                          ",
"              X.X.} X.        X.X.X.X.      X.X.X.X.                                            ",
"              } } } }       } } } }       [ } } '                                               ",
"            ) ' ' '         ' ' ' '       ' ' ' '                                               ",
"            ( ! ! )       ( ! ! )       ! ! ! !         ( ( ( (       / ( ( )       ! ( ( (     ",
"          T T T !             T         T T T T       T T T T                       T ! T T     ",
"          I L L         L L T         L L L L         I L L I       I L I I       I I I L       ",
"        Z Z Z         Z Z Z Z         Z Z Z B       Z Z Z Z       Z Z Z Z           Z Z B       ",
"      B g             B g N b           z B       B b b           b b b b       N N   B         ",
"          g z       z z g g       z z f           g     z       z z z z       z g g f           ",
"      f s s         u f d s       s f d f           d s         s u s s       s d d s           ",
"    u u u u       u u u u       u e u u         r r r u       w r r e       u r r r             ",
"                                              7 7 7 7       w 7 7 7 7       7 7 7 w             ",
"                                              6 5 6 4       3 3 3 4       6 3 3 3               ",
"                                            < 3 < <       2 < < 3         < < < ,               ",
"                                          - ; ; ; ;       : ; ; ;                               ",
"                                          * & * &       * * * *                                 ",
"                                        % % % %         % % % *                                 ",
"                                        @ @ @ @                                                 ",
"                                      O O O o                                                   ",
"                                      X X X X                                                   ",
"                                                                                                ",
"                                                                                                ",
"                                                                                                ",
"                                                                                                ",
"                                                                                                ",
"                                                                                                ",
"                                                                                                ",
"                                                                                                ",
"                                                                                                ",
"                                                                                                ",
"                                                                                                "
};
